<svg width="173" height="171" viewBox="0 0 173 171" fill="none" xmlns="http://www.w3.org/2000/svg">
<path d="M139.5 55.5C139.5 85.8673 114.436 110.5 83.5 110.5C52.5636 110.5 27.5 85.8673 27.5 55.5C27.5 25.1327 52.5636 0.5 83.5 0.5C114.436 0.5 139.5 25.1327 139.5 55.5Z" fill="#B01919" stroke="#B01919"/>
<path d="M67.3925 24.2343C65.4065 28.8001 68.315 31.3259 70.0175 32.018L84.2308 34.1315C89.9589 34.7812 99.4563 43.9168 103.257 49.4204C108.454 56.9461 112.456 77.7287 99.7656 79.9931C89.6136 81.8046 81.8707 70.9503 78.6327 65.3034C74.1803 57.5389 72.5304 49.2714 68.8812 44.8124C58.5852 32.9909 40.6043 41.5603 37.8033 51.5318C32.9283 71.467 44.0927 85.6154 48.8812 91.956C54.0411 98.273 67.0426 101.639 73.1293 106.698C77.6957 110.494 75.2557 114.87 76.226 115.647C79.6052 118.353 85.0923 100.742 70.6772 94.5029C61.195 90.3989 56.7308 78.0803 55.1905 72.6522C54.0595 61.8701 62.5528 59.0631 66.6733 62.6988C72.3577 69.4714 70.8049 67.3855 74.9475 73.1232C77.8791 77.1835 78.9861 77.9559 82.5524 80.8454C90.613 87.3765 100.345 94.6167 112.392 91.649C124.439 88.6812 131.507 65.4464 128.879 56.6337C125.176 44.2181 108.401 34.1426 103.683 29.5322C95.0577 21.1016 91.3443 12.4453 88.1999 4.59444C86.6526 3.03418 86.5607 13.1594 86.5932 16.2363C85.6302 21.3595 74.3696 22.7403 67.3925 24.2343Z" fill="white" stroke="white"/>
<path d="M83.1459 23.0117C84.1784 22.6789 85.144 22.5469 85.861 22.5876C86.2213 22.608 86.4917 22.6706 86.6708 22.7523C86.8496 22.8339 86.8882 22.9094 86.8973 22.9376C86.9064 22.9658 86.9191 23.0497 86.8216 23.2203C86.7239 23.3912 86.541 23.5999 86.2604 23.8269C85.7021 24.2786 84.8413 24.7354 83.8088 25.0682C82.7763 25.401 81.8108 25.5329 81.0938 25.4923C80.7335 25.4718 80.4631 25.4093 80.284 25.3276C80.1052 25.246 80.0666 25.1704 80.0575 25.1423C80.0484 25.1141 80.0356 25.0302 80.1331 24.8595C80.2308 24.6886 80.4138 24.4799 80.6943 24.253C81.2526 23.8012 82.1135 23.3445 83.1459 23.0117Z" fill="#B01919" stroke="#B01919"/>
<path d="M16.8157 118.921L14.7528 123.447C14.7528 124.759 1.68764 142.197 1.68764 142.844C1.68764 143.361 1.22921 144.784 1 145.43C4.30067 145.43 9.71011 139.396 12.0022 136.378V157.068C12.0022 164.199 10.627 161.612 10.627 163.552C12.2773 168.724 14.982 169.999 16.1281 169.999L16.8157 130.559L21.6292 124.094C22.7294 124.094 21.1708 120.214 20.2539 118.275C18.0535 115.689 17.0449 117.628 16.8157 118.921Z" fill="#B01919" stroke="#B01919"/>
<path d="M21.6289 134.494L22.3165 139.02L23.0042 159.063C21.904 160.097 21.6289 162.08 21.6289 162.942L24.3795 164.881C24.9296 165.916 26.9008 164.45 27.8177 163.588L46.384 162.295C47.4842 164.364 48.6761 164.45 49.1345 164.235C50.5098 166.175 52.5727 144.192 52.5727 143.545C52.5727 142.899 53.2604 136.433 53.948 136.433C54.4981 136.433 50.5098 133.847 48.4469 132.554H47.0716C46.5215 132.037 47.3008 137.08 47.7592 139.666C48.4469 140.922 47.3008 151.735 46.384 157.77L27.13 159.063V143.545C27.13 142.511 28.0469 139.235 28.5053 137.726L24.3795 134.494C22.7291 132.942 21.8581 133.847 21.6289 134.494Z" fill="#B01919" stroke="#B01919"/>
<path d="M34.222 136.785C28.5059 123.466 35.8219 118.309 38.133 118.293C37.8023 124.112 35.9785 123.083 37.7753 133.265C38.2793 136.121 39.6317 142.449 40.3538 145.954C41.4529 152.88 38.8057 161.811 34.6423 160.412C31.4506 157.691 40.3067 150.963 34.222 136.785Z" fill="#B01919" stroke="#B01919"/>
<path d="M82.4356 123.415C83.0534 123.415 82.1782 120.566 81.6634 119.141C80.4279 116.407 78.5746 116.862 77.8024 117.432L74.7136 126.833C74.7136 127.688 71.6247 122.56 69.3081 122.56H67.7637V124.269L72.3969 130.252L65.4472 137.943L64.6749 140.507H66.9915L73.9413 134.525C75.1768 136.576 68.2786 147.344 64.675 151.617C62.8217 154.352 62.8732 155.605 63.1306 155.89H65.4472C68.536 154.523 73.9414 146.774 76.258 143.071C76.8758 143.754 75.4858 154.751 74.7136 160.163L70.8526 156.745H68.536C68.536 160.163 70.8525 163.582 75.4858 167C82.4355 161.018 79.6042 138.228 77.0302 130.252C78.5746 127.973 81.8179 123.415 82.4356 123.415Z" fill="#B01919" stroke="#B01919"/>
<path d="M83.9789 120.852L86.2955 121.707L88.6121 125.125L100.967 119.143C102.769 119.998 106.218 121.878 105.601 122.562C103.89 123.914 100.554 126.242 100.222 125.303C102.036 137.321 105.916 160.496 107.145 158.455C108.432 159.31 111.16 161.019 111.778 161.019C112.293 161.874 114.249 163.322 111.778 164.005L105.47 164.438C104.698 163.868 104.567 162.718 103.154 158.878L101.155 155.037C101.35 157.886 100.967 165.292 97.8786 162.728L97.1064 158.455L95.755 159.524L94.4037 160.592L91.7009 162.728C89.3843 161.874 88.7666 161.19 89.3843 158.455L90.9287 155.892V127.689L88.6121 128.544C89.3843 138.229 89.0755 159.139 81.6623 165.292C80.8901 165.862 79.3457 166.318 79.3457 163.583C81.4049 159.31 85.3689 149.909 84.7511 146.491V128.544L83.9789 124.271V120.852Z" fill="#B01919"/>
<path d="M101.155 155.037C100.253 152.895 95.2132 150.047 94.6593 151.186C94.4913 145.264 94.6382 135.102 94.7898 129.398C95.4075 129.398 94.5324 128.259 94.0176 127.689L96.3342 126.835L101.155 155.037ZM101.155 155.037L103.154 158.878C104.567 162.718 104.698 163.868 105.47 164.438L111.778 164.005C114.249 163.322 112.293 161.874 111.778 161.019C111.16 161.019 108.432 159.31 107.145 158.455C105.909 160.506 101.997 137.09 100.195 125.125C100.195 126.493 103.799 123.986 105.601 122.562C106.218 121.878 102.769 119.998 100.967 119.143L88.6121 125.125L86.2955 121.707L83.9789 120.852V124.271L84.7511 128.544V146.491C85.3689 149.909 81.4049 159.31 79.3457 163.583C79.3457 166.318 80.8901 165.862 81.6623 165.292C89.0755 159.139 89.3843 138.229 88.6121 128.544L90.9287 127.689V155.892L89.3843 158.455C88.7666 161.19 89.3843 161.874 91.7009 162.728L94.4037 160.592L95.755 159.524L97.1064 158.455L97.8786 162.728C100.967 165.292 101.35 157.886 101.155 155.037Z" stroke="#B01919"/>
<path d="M96.2048 127.256L95.4326 128.242V149.936C96.977 149.936 98.7788 150.922 100.066 152.894L96.2048 127.256Z" fill="white" stroke="#B01919" stroke-width="0.5"/>
<path d="M96.2225 156.303L96.1902 156.388L96.1881 156.47C96.1879 156.473 96.1873 156.478 96.1863 156.486C96.1836 156.507 96.1776 156.544 96.1647 156.594C96.1391 156.694 96.0862 156.845 95.9773 157.021C95.7665 157.361 95.3171 157.841 94.3396 158.206C94.3054 158.215 94.2718 158.223 94.239 158.232C94.036 158.285 93.859 158.331 93.6972 158.363C93.5243 158.397 93.4169 158.403 93.3553 158.397C93.3507 158.35 93.3508 158.259 93.3808 158.101C94.1926 156.529 94.4091 154.747 94.4852 153.369C94.6768 153.525 94.9129 153.766 95.1582 154.069C95.499 154.49 95.8184 154.984 96.0217 155.433C96.1235 155.658 96.1895 155.856 96.2192 156.019C96.2501 156.188 96.2336 156.274 96.2225 156.303ZM94.1932 153.182C94.1931 153.182 94.1931 153.182 94.1932 153.182L94.1932 153.182ZM94.5059 152.968C94.5059 152.968 94.5058 152.969 94.5054 152.971C94.5057 152.969 94.5058 152.968 94.5059 152.968Z" fill="white" stroke="white"/>
<path d="M123.839 126.936L138.051 126.095C137.772 124.135 137.215 121.055 136.379 119.374L137.215 117.693H138.887C139.723 118.534 141.395 119.375 142.231 120.214C143.067 121.055 142.952 122.488 142.231 123.575C141.673 124.415 140.893 126.095 142.231 126.095C143.568 126.095 149.476 125.535 152.263 125.255C152.263 123.295 152.135 120.546 151.626 119.525C150.79 117.844 152.295 115.827 154.97 117.844L158.115 120.214C157.842 121.583 157.143 124.292 156.487 124.411L165.639 123.575C167.032 123.855 169.819 124.752 169.819 126.096C169.54 127.216 169.819 127.776 166.475 127.776L155.607 128.617L153.099 134.498H151.427L150.591 133.658L151.427 128.617L142.231 129.457V133.658L140.559 135.338C138.887 133.938 135.877 130.801 137.215 129.457L126.347 130.297C125.232 130.017 123.17 128.952 123.839 126.936Z" fill="#B01919"/>
<path d="M123.839 126.936L138.051 126.095C137.772 124.135 137.215 121.055 136.379 119.374L137.215 117.693H138.887C139.723 118.534 141.395 119.375 142.231 120.214C143.067 121.055 142.952 122.488 142.231 123.575C141.673 124.415 140.893 126.095 142.231 126.095C143.568 126.095 149.476 125.535 152.263 125.255C152.263 123.295 152.135 120.546 151.626 119.525C150.79 117.844 152.295 115.827 154.97 117.844L158.115 120.214C157.836 121.614 157.111 124.415 156.443 124.415L165.639 123.575C167.032 123.855 169.819 124.752 169.819 126.096C169.54 127.216 169.819 127.776 166.475 127.776L155.607 128.617L153.099 134.498H151.427L150.591 133.658L151.427 128.617L142.231 129.457V133.658L140.559 135.338C138.887 133.938 135.877 130.801 137.215 129.457L126.347 130.297C125.232 130.017 123.17 128.952 123.839 126.936Z" stroke="#B01919"/>
<path d="M133.871 142.06C139.723 138.7 144.572 132.125 146.244 129.604C149.421 133.112 149.031 133.805 148.752 134.645L155.44 139.687C162.128 145.736 167.701 146.542 169.652 146.262C172.327 146.262 172.242 148.502 171.685 149.623L162.128 150.61C161.459 150.61 151.817 141.647 147.08 137.166C146.411 138.51 138.608 143.461 134.707 146.262C133.369 147.606 127.461 150.183 124.675 151.303L122.167 152.143C121.498 152.143 123.003 149.903 123.839 148.782L133.871 142.06Z" fill="#B01919" stroke="#B01919"/>
<path d="M144.572 145.567L135.376 146.408C134.038 148.424 135.933 150.049 137.048 150.609L144.572 149.769V161.532L141.228 158.171H139.556L138.72 160.692L140.81 163.212L142.9 165.733C147.08 169.094 147.916 164.893 148.752 163.212V149.769L154.604 148.928C156.61 148.928 157.948 148.088 157.948 147.248L154.604 144.727C152.653 145.007 148.585 145.567 147.916 145.567C147.247 145.567 148.195 143.887 148.752 143.047C150.758 142.375 146.801 139.966 144.572 138.846C145.408 139.284 143.179 140.526 142.9 141.366C143.569 142.039 144.293 144.447 144.572 145.567Z" fill="#B01919" stroke="#B01919"/>
<path d="M141.229 156.49C142.065 154.81 141.977 152.952 141.229 151.449C140.393 149.769 139.556 148.929 136.213 153.129C132.87 157.329 131.476 158.45 128.692 160.689L128.689 160.692C126.181 163.212 128.689 164.053 130.361 163.212C138.721 160.692 137.606 159.291 141.229 156.49Z" fill="#B01919" stroke="#B01919"/>
<path d="M153.767 152.29C150.422 151.45 148.75 151.449 150.423 153.97L155.439 158.171L159.619 162.373C163.799 161.532 162.685 158.451 162.127 156.491C160.79 155.147 156.275 153.13 153.767 152.29Z" fill="#B01919" stroke="#B01919"/>
</svg>
