<svg width="473" height="566" viewBox="0 0 473 566" fill="none" xmlns="http://www.w3.org/2000/svg">
<path d="M157.965 101.817C147.971 124.792 162.606 137.502 171.173 140.985L242.693 151.619C271.517 154.888 319.307 200.858 338.431 228.552C364.582 266.421 384.718 370.997 320.863 382.391C269.779 391.506 230.818 336.888 214.524 308.474C192.12 269.404 183.818 227.802 165.455 205.365C113.647 145.88 23.1682 189.001 9.07413 239.176C-15.4568 339.488 40.7217 410.682 64.8173 442.587C90.7812 474.374 156.204 491.312 186.832 516.77C209.809 535.869 197.531 557.887 202.414 561.798C219.418 575.416 247.028 486.797 174.493 455.403C126.779 434.752 104.316 372.766 96.5649 345.452C90.8741 291.198 133.612 277.073 154.346 295.367C182.949 329.447 175.135 318.951 195.981 347.822C210.732 368.254 216.302 372.14 234.248 386.68C274.808 419.544 323.78 455.976 384.399 441.042C445.017 426.109 480.585 309.193 467.359 264.848C448.727 202.374 364.314 151.675 340.578 128.476C297.174 86.0542 278.488 42.4961 262.665 2.99138C254.88 -4.85971 254.417 46.0898 254.581 61.5725C249.735 87.3517 193.072 94.2999 157.965 101.817Z" fill="#B01919" stroke="#B01919"/>
</svg>
