<svg width="18" height="18" viewBox="0 0 18 18" fill="none" xmlns="http://www.w3.org/2000/svg">
<path d="M16.0714 9.00002H6.10714V5.37542C6.10714 3.98323 7.3808 2.82659 8.97188 2.81253C10.579 2.79847 11.8929 3.94104 11.8929 5.34377V5.90627C11.8929 6.37385 12.3228 6.75002 12.8571 6.75002H14.1429C14.6772 6.75002 15.1071 6.37385 15.1071 5.90627V5.34377C15.1071 2.39066 12.3549 -0.0105122 8.97991 3.46119e-05C5.60491 0.0105815 2.89286 2.44339 2.89286 5.39651V9.00002H1.92857C0.863839 9.00002 0 9.75588 0 10.6875V16.3125C0 17.2441 0.863839 18 1.92857 18H16.0714C17.1362 18 18 17.2441 18 16.3125V10.6875C18 9.75588 17.1362 9.00002 16.0714 9.00002ZM10.6071 14.3438C10.6071 15.1207 9.88795 15.75 9 15.75C8.11205 15.75 7.39286 15.1207 7.39286 14.3438V12.6563C7.39286 11.8793 8.11205 11.25 9 11.25C9.88795 11.25 10.6071 11.8793 10.6071 12.6563V14.3438Z" fill="black"/>
</svg>
