<svg width="22" height="22" viewBox="0 0 22 22" fill="none" xmlns="http://www.w3.org/2000/svg">
<path d="M13.3621 8.45625V11.9478C13.3621 12.0362 13.2933 12.1049 13.2049 12.1049H12.6451C12.5911 12.1049 12.542 12.0754 12.5174 12.0411L10.9165 9.88036V11.9527C10.9165 12.0411 10.8478 12.1098 10.7594 12.1098H10.1996C10.1112 12.1098 10.0424 12.0411 10.0424 11.9527V8.46116C10.0424 8.37277 10.1112 8.30402 10.1996 8.30402H10.7545C10.8036 8.30402 10.8576 8.32857 10.8821 8.37277L12.483 10.5335V8.46116C12.483 8.37277 12.5518 8.30402 12.6402 8.30402H13.2C13.2884 8.29911 13.3621 8.37277 13.3621 8.45625ZM9.33527 8.29911H8.77545C8.68706 8.29911 8.61831 8.36786 8.61831 8.45625V11.9478C8.61831 12.0362 8.68706 12.1049 8.77545 12.1049H9.33527C9.42366 12.1049 9.49241 12.0362 9.49241 11.9478V8.45625C9.49241 8.37277 9.42366 8.29911 9.33527 8.29911ZM7.98482 11.2259H6.45759V8.45625C6.45759 8.36786 6.38884 8.29911 6.30045 8.29911H5.74063C5.65224 8.29911 5.58349 8.36786 5.58349 8.45625V11.9478C5.58349 11.992 5.59822 12.0263 5.62768 12.0558C5.65715 12.0804 5.69152 12.1 5.73572 12.1H7.97991C8.06831 12.1 8.13706 12.0312 8.13706 11.9429V11.383C8.13706 11.2996 8.06831 11.2259 7.98482 11.2259ZM16.3085 8.29911H14.0643C13.9808 8.29911 13.9071 8.36786 13.9071 8.45625V11.9478C13.9071 12.0312 13.9759 12.1049 14.0643 12.1049H16.3085C16.3969 12.1049 16.4656 12.0362 16.4656 11.9478V11.3879C16.4656 11.2996 16.3969 11.2308 16.3085 11.2308H14.7812V10.6415H16.3085C16.3969 10.6415 16.4656 10.5728 16.4656 10.4844V9.91964C16.4656 9.83125 16.3969 9.7625 16.3085 9.7625H14.7812V9.17322H16.3085C16.3969 9.17322 16.4656 9.10447 16.4656 9.01607V8.45625C16.4607 8.37277 16.392 8.29911 16.3085 8.29911ZM22 4.01206V18.0223C21.9951 20.2223 20.1928 22.0049 17.9879 22H3.97768C1.77769 21.9951 -0.00490059 20.1879 1.01218e-05 17.9879V3.97768C0.00492083 1.77769 1.81206 -0.00490059 4.01206 1.01218e-05H18.0223C20.2223 0.00492083 22.0049 1.80715 22 4.01206ZM18.975 10.0326C18.975 6.44777 15.3804 3.53081 10.9656 3.53081C6.5509 3.53081 2.95626 6.44777 2.95626 10.0326C2.95626 13.2442 5.80447 15.9353 9.65447 16.446C10.5924 16.6473 10.4844 16.9911 10.2732 18.2531C10.2388 18.4545 10.1112 19.0437 10.9656 18.6853C11.8201 18.3268 15.5768 15.9696 17.2612 14.0348C18.4201 12.758 18.975 11.4665 18.975 10.0326Z" fill="white"/>
</svg>
