<svg width="30" height="30" viewBox="0 0 30 30" fill="none" xmlns="http://www.w3.org/2000/svg">
<path d="M15 0C23.2706 0 30 5.46 30 12.1725C30 14.8594 28.9594 17.2781 26.7844 19.6613C23.6381 23.2838 16.6012 27.6956 15 28.3706C13.4438 29.0269 13.6237 28.0013 13.695 27.5963L13.7006 27.5625L13.9144 26.2781C13.965 25.8956 14.0175 25.3013 13.8656 24.9225C13.6969 24.5044 13.0331 24.2869 12.5456 24.1819C5.33625 23.2313 0 18.1894 0 12.1725C0 5.46 6.73125 0 15 0ZM9.41625 14.4113H6.55687V9.22125C6.55688 9.144 6.52632 9.06988 6.47187 9.01508C6.41742 8.96028 6.3435 8.92925 6.26625 8.92875H5.2125C5.17409 8.92875 5.13605 8.93632 5.10056 8.95102C5.06508 8.96572 5.03283 8.98726 5.00567 9.01442C4.97851 9.04158 4.95696 9.07383 4.94227 9.10932C4.92757 9.1448 4.92 9.18284 4.92 9.22125V15.7575C4.92 15.8344 4.95187 15.9075 5.0025 15.9581V15.96L5.00625 15.9638L5.01 15.9675C5.06438 16.0198 5.13706 16.0487 5.2125 16.0481H9.41625C9.5775 16.0481 9.70687 15.9169 9.70687 15.7556V14.7056C9.70712 14.6672 9.6998 14.6291 9.68533 14.5935C9.67086 14.558 9.64952 14.5256 9.62253 14.4982C9.59554 14.4709 9.56344 14.4492 9.52804 14.4342C9.49265 14.4193 9.45466 14.4115 9.41625 14.4113ZM10.8994 8.92875C10.8218 8.92875 10.7474 8.95957 10.6925 9.01442C10.6377 9.06928 10.6069 9.14368 10.6069 9.22125V15.7575C10.6069 15.9188 10.7381 16.0481 10.8994 16.0481H11.9531C12.1144 16.0481 12.2438 15.9169 12.2438 15.7575V9.22125C12.2438 9.144 12.2132 9.06988 12.1587 9.01508C12.1043 8.96028 12.0304 8.92925 11.9531 8.92875H10.8994ZM18.1425 8.92875C18.0649 8.92875 17.9905 8.95957 17.9357 9.01442C17.8808 9.06928 17.85 9.14368 17.85 9.22125V13.1025L14.8556 9.06C14.8481 9.05016 14.8399 9.04077 14.8312 9.03188C14.8253 9.02531 14.8191 9.01718 14.8125 9.01125L14.8069 9.00563C14.8004 8.99948 14.7936 8.99384 14.7863 8.98875L14.775 8.98125L14.7694 8.9775C14.7664 8.97532 14.7633 8.97343 14.76 8.97188L14.745 8.9625H14.7413L14.7356 8.95875L14.7169 8.95125L14.7094 8.9475C14.7032 8.94528 14.697 8.9434 14.6906 8.94188H14.6869L14.6812 8.94L14.6644 8.93625H14.6531L14.6475 8.93438H14.64L14.6363 8.9325H13.56C13.4827 8.9325 13.4086 8.96306 13.3538 9.01751C13.299 9.07196 13.268 9.14588 13.2675 9.22313V15.7594C13.2675 15.9206 13.3987 16.05 13.56 16.05H14.61C14.7731 16.05 14.9044 15.9188 14.9044 15.7594V11.8781L17.9044 15.9281C17.9243 15.956 17.9491 15.9802 17.9775 15.9994L17.9794 16.0013L17.9981 16.0125L18.0056 16.0163C18.0104 16.0191 18.0155 16.0216 18.0206 16.0238L18.0338 16.0294L18.0431 16.0331C18.0493 16.0352 18.0556 16.0371 18.0619 16.0388H18.0675C18.0919 16.0458 18.1171 16.0495 18.1425 16.05H19.1925C19.3556 16.05 19.4869 15.9188 19.4869 15.7594V9.22125C19.4869 9.14368 19.4561 9.06928 19.4012 9.01442C19.3463 8.95957 19.272 8.92875 19.1944 8.92875H18.1425ZM25.2956 10.2731V9.22313C25.2959 9.18471 25.2885 9.14663 25.2741 9.11105C25.2596 9.07547 25.2383 9.04308 25.2113 9.01575C25.1843 8.98841 25.1522 8.96666 25.1168 8.95173C25.0814 8.93681 25.0434 8.929 25.005 8.92875H20.8013C20.7256 8.92884 20.6529 8.95844 20.5988 9.01125H20.5969L20.595 9.015L20.5913 9.02063C20.5389 9.07435 20.5093 9.14624 20.5087 9.22125V15.7575C20.5087 15.8344 20.5406 15.9075 20.5913 15.9581L20.595 15.9638L20.5988 15.9675C20.6532 16.0196 20.7258 16.0485 20.8013 16.0481H25.005C25.1663 16.0481 25.2956 15.9169 25.2956 15.7556V14.7056C25.2959 14.6672 25.2885 14.6291 25.2741 14.5935C25.2596 14.558 25.2383 14.5256 25.2113 14.4982C25.1843 14.4709 25.1522 14.4492 25.1168 14.4342C25.0814 14.4193 25.0434 14.4115 25.005 14.4113H22.1438V13.3069H25.0031C25.1644 13.3069 25.2937 13.1756 25.2937 13.0144V11.9644C25.294 11.926 25.2867 11.8879 25.2722 11.8523C25.2577 11.8167 25.2364 11.7843 25.2094 11.757C25.1824 11.7297 25.1503 11.7079 25.1149 11.693C25.0795 11.6781 25.0415 11.6702 25.0031 11.67H22.1438V10.5656H25.0031C25.1644 10.5656 25.2937 10.4344 25.2937 10.2731H25.2956Z" fill="white"/>
</svg>
