<svg width="21" height="21" viewBox="0 0 21 21" fill="none" xmlns="http://www.w3.org/2000/svg">
<path d="M19.1339 8.41964H12.7054V1.99107C12.7054 1.20223 12.0656 0.5625 11.2768 0.5625H9.84821C9.05938 0.5625 8.41964 1.20223 8.41964 1.99107V8.41964H1.99107C1.20223 8.41964 0.5625 9.05938 0.5625 9.84821V11.2768C0.5625 12.0656 1.20223 12.7054 1.99107 12.7054H8.41964V19.1339C8.41964 19.9228 9.05938 20.5625 9.84821 20.5625H11.2768C12.0656 20.5625 12.7054 19.9228 12.7054 19.1339V12.7054H19.1339C19.9228 12.7054 20.5625 12.0656 20.5625 11.2768V9.84821C20.5625 9.05938 19.9228 8.41964 19.1339 8.41964Z" fill="black"/>
</svg>
