<svg width="30" height="28" viewBox="0 0 30 28" fill="none" xmlns="http://www.w3.org/2000/svg">
<path d="M20.7495 17.6591L20.0693 18.4785H21.1342H22.0603C22.3024 18.4785 22.5246 18.5676 22.6833 18.717L28.3456 24.0499C28.3459 24.0502 28.3462 24.0505 28.3466 24.0508C28.6665 24.3564 28.6663 24.8373 28.3418 25.143L26.734 26.6572L26.7321 26.6591C26.3978 26.9773 25.8362 26.9798 25.4937 26.6572L19.8295 21.3225C19.672 21.1742 19.589 20.9786 19.589 20.7769V19.9047V18.9156L18.7925 19.5021C16.8722 20.9162 14.4534 21.7591 11.817 21.7591C5.53673 21.7591 0.5 16.9736 0.5 11.1295C0.5 5.28549 5.53673 0.5 11.817 0.5C18.0973 0.5 23.134 5.28549 23.134 11.1295C23.134 13.5905 22.2475 15.8547 20.7495 17.6591ZM4.045 11.1295C4.045 15.222 7.55313 18.4785 11.817 18.4785C16.0871 18.4785 19.589 15.2162 19.589 11.1295C19.589 7.03701 16.0809 3.78059 11.817 3.78059C7.54693 3.78059 4.045 7.04285 4.045 11.1295Z" fill="#B01919" stroke="#E2C2B5"/>
</svg>
