<svg width="30" height="30" viewBox="0 0 30 30" fill="none" xmlns="http://www.w3.org/2000/svg">
<path d="M26.6681 17.6554L29.0552 5.46791C29.2276 4.58795 28.6512 3.75 27.8735 3.75H8.03942L7.57657 1.12441C7.46124 0.469981 6.96496 0 6.38925 0H1.21191C0.542583 0 0 0.62959 0 1.40625V2.34375C0 3.12041 0.542583 3.75 1.21191 3.75H4.74075L8.28801 23.8731C7.43937 24.4395 6.8675 25.5013 6.8675 26.7188C6.8675 28.5309 8.13354 30 9.69529 30C11.257 30 12.5231 28.5309 12.5231 26.7188C12.5231 25.8004 12.1975 24.9706 11.6735 24.375H22.2599C21.736 24.9706 21.4104 25.8004 21.4104 26.7188C21.4104 28.5309 22.6765 30 24.2382 30C25.8 30 27.066 28.5309 27.066 26.7188C27.066 25.4196 26.4152 24.297 25.4714 23.7653L25.75 22.3429C25.9223 21.4629 25.3459 20.625 24.5682 20.625H11.0141L10.6836 18.75H25.4864C26.0522 18.75 26.5427 18.2957 26.6681 17.6554Z" fill="#B01919"/>
</svg>
