<svg width="40" height="40" viewBox="0 0 40 40" fill="none" xmlns="http://www.w3.org/2000/svg">
<rect width="40" height="40" fill="#B01919"/>
<path d="M31.6582 29.6162L26.79 24.748C26.5703 24.5283 26.2725 24.4062 25.96 24.4062H25.1641C26.5117 22.6826 27.3125 20.5146 27.3125 18.1562C27.3125 12.5459 22.7666 8 17.1562 8C11.5459 8 7 12.5459 7 18.1562C7 23.7666 11.5459 28.3125 17.1562 28.3125C19.5146 28.3125 21.6826 27.5117 23.4062 26.1641V26.96C23.4062 27.2725 23.5283 27.5703 23.748 27.79L28.6162 32.6582C29.0752 33.1172 29.8174 33.1172 30.2715 32.6582L31.6533 31.2764C32.1123 30.8174 32.1123 30.0752 31.6582 29.6162ZM17.1562 24.4062C13.7041 24.4062 10.9062 21.6133 10.9062 18.1562C10.9062 14.7041 13.6992 11.9062 17.1562 11.9062C20.6084 11.9062 23.4062 14.6992 23.4062 18.1562C23.4062 21.6084 20.6133 24.4062 17.1562 24.4062Z" fill="#F9F8F4"/>
</svg>
